<?xml version="1.0" encoding="utf-8"?>
<!-- Generator: Adobe Illustrator 27.5.0, SVG Export Plug-In . SVG Version: 6.00 Build 0)  -->
<svg version="1.1" id="Capa_1" xmlns="http://www.w3.org/2000/svg" xmlns:xlink="http://www.w3.org/1999/xlink" x="0px" y="0px"
	 viewBox="0 0 2122 2122" style="enable-background:new 0 0 2122 2122;" xml:space="preserve">
<rect x="0.008" style="fill:#FFFFFF;" width="2121.313" height="2121.328"/>
<g>
	<g>
		<g>
			<defs>
				<circle id="SVGID_1_" cx="1060.658" cy="880.695" r="755.968"/>
			</defs>
			<clipPath id="SVGID_00000127036533856449200870000011749567548417810816_">
				<use xlink:href="#SVGID_1_"  style="overflow:visible;"/>
			</clipPath>
			
				<rect x="-67.176" y="124.727" style="clip-path:url(#SVGID_00000127036533856449200870000011749567548417810816_);fill:#A4D2DA;" width="2255.684" height="1148.418"/>
			<g style="clip-path:url(#SVGID_00000127036533856449200870000011749567548417810816_);">
				<path style="opacity:0.5;fill:#FFFFFF;" d="M1098.246,689.238c6.09-6.652,14.809-10.848,24.543-10.848
					c18.379,0,33.297,14.906,33.297,33.293c0,3.586-0.586,7.035-1.637,10.273c13.77,4.082,23.836,16.809,23.836,31.91
					c0,5.777-1.504,11.106-4.105,15.844l256.418-70.777l-98.836-15.867c0.129,0-35.777,0.203-35.621,0
					c-6.168-6.047-45.77,0-28.172,22.027c4.277,5.356,2.074-13.199,5.621-18.488c-4.879-5.801-7.832-13.266-7.832-21.434
					c0-15.098,10.055-27.824,23.832-31.906c-1.043-3.238-1.637-6.676-1.637-10.262c0-18.391,14.91-33.301,33.297-33.301
					c9.723,0,18.453,4.199,24.547,10.852c1.266-17.23,15.617-30.828,33.188-30.828c14.52,0,26.844,9.32,31.387,22.297
					c0.633-0.035,1.254-0.098,1.891-0.098c13.164,0,24.496,7.645,29.914,18.711c7.754-5.66,17.148-9.168,27.371-9.695
					c5.504-13.016,16.262-23.223,29.602-28.09c-2.992-4.777-4.754-10.398-4.754-16.445c0-14.543,10.016-26.723,23.52-30.109
					c-10.004-5.164-16.848-15.574-16.848-27.609c0-17.16,13.918-31.074,31.074-31.074c6.531,0,12.59,2.027,17.598,5.469
					c8.246-19.52,27.586-33.219,50.105-33.219c17.102,0,32.34,7.902,42.309,20.242c7.844-4.391,16.879-6.922,26.516-6.922
					c28.18,0,51.34,21.438,54.109,48.875c9.742,0.215,18.57,4,25.277,10.113c3.098-18.352,19.027-32.348,38.262-32.348
					c16.109,0,29.926,9.793,35.801,23.754c3.441-0.996,7.055-1.559,10.828-1.559c9.832,0,18.797,3.695,25.656,9.734
					c0.34-5.387,1.754-10.461,4.063-15.023c-6.715-6.988-10.855-16.449-10.855-26.895c0-21.457,17.859-38.852,39.309-38.852
					c2.27,0,4.188,0.215,7.094,0.59V249.766c-28.922,8.301-46.199,32.711-47.551,60.824c-12.766-9.105-28.941-13.797-45.684-12.152
					c-10.375-46.531-54.652-78.551-103.004-72.762c-16.527,1.977-31.57,8.164-44.133,17.316
					c-19.621-19.125-47.422-29.555-76.762-26.047c-38.656,4.629-69.027,32.098-79.184,67.285c-9.285-4.883-20.102-7.113-31.316-5.77
					c-29.457,3.523-50.465,30.254-46.945,59.703c2.465,20.637,16.348,37.098,34.57,43.906c-22.48,8.586-37.152,31.531-34.152,56.492
					c1.238,10.383,5.398,19.664,11.496,27.242c-21.875,11.086-38.254,30.809-45.016,54.27c-17.414,3-32.84,10.945-44.98,22.262
					c-11.555-17.883-32.574-28.672-55.152-25.973c-1.09,0.137-2.16,0.367-3.234,0.555c-10.473-21.328-33.539-34.789-58.453-31.809
					c-30.129,3.605-51.957,29.879-50.594,59.707c-11.809-10.164-27.645-15.574-44.344-13.578
					c-31.555,3.777-54.07,32.414-50.301,63.969c0.742,6.156,2.445,11.941,4.91,17.281c-19.281,8.313-32.68,26.719-34.484,47.875
					c3.48-1.254,7.242-1.953,11.168-1.953C1082.625,658.41,1096.977,672.008,1098.246,689.238z"/>
				<path style="fill:#FFFFFF;" d="M1847.52,415.387c0,11.41,4.512,21.754,11.852,29.387c-2.516,4.988-4.074,10.527-4.445,16.41
					c-7.484-6.598-17.273-10.633-28.023-10.633c-4.102,0-8.066,0.613-11.82,1.703c-6.43-15.246-21.535-25.957-39.113-25.957
					c-21.027,0-38.422,15.289-41.813,35.344c-7.316-6.676-16.973-10.816-27.613-11.047c-3.02-29.984-28.336-53.402-59.109-53.402
					c-10.531,0-20.402,2.766-28.977,7.563c-10.895-13.477-27.539-22.109-46.227-22.109c-24.605,0-45.73,14.969-54.742,36.289
					c-5.457-3.762-12.086-5.977-19.215-5.977c-18.758,0-33.961,15.203-33.961,33.957c0,13.145,7.484,24.52,18.398,30.16
					c-14.742,3.699-25.676,17.004-25.676,32.898c0,6.605,1.918,12.754,5.184,17.969c-14.566,5.309-26.34,16.461-32.34,30.684
					c-11.16,0.574-21.438,4.406-29.906,10.598c-5.926-12.098-18.301-20.445-32.684-20.445c-0.699,0-1.383,0.063-2.063,0.102
					c-4.98-14.176-18.438-24.356-34.301-24.356c-19.195,0-34.863,14.856-36.25,33.68c-6.652-7.266-16.184-11.855-26.813-11.855
					c-20.094,0-36.387,16.289-36.387,36.383c0,3.918,0.633,7.68,1.793,11.215c-15.063,4.461-26.047,18.375-26.047,34.867
					c0,8.93,3.234,17.098,8.566,23.43c-3.867,5.781-6.141,12.738-6.141,20.227c0,10.18,4.184,19.262,10.926,25.863
					c-0.148,0.227-0.254,0.602-0.391,0.602h254.547h423.48V373.586c-3.168-0.406-5.273-0.645-7.738-0.645
					C1867.027,372.941,1847.52,391.945,1847.52,415.387z"/>
				<path style="fill:#FFFFFF;" d="M735.09,718.313c0-15.102-10.055-27.836-23.824-31.914c1.055-3.234,1.629-6.684,1.629-10.269
					c0-18.387-14.91-33.297-33.297-33.297c-9.734,0-18.445,4.199-24.555,10.852c-1.266-17.234-15.602-30.828-33.16-30.828
					c-3.938,0-7.699,0.695-11.176,1.949c-9.453,3.371-16.906,10.875-20.238,20.344c-0.625-0.035-1.25-0.094-1.891-0.094
					c-13.156,0-24.488,7.641-29.906,18.707c-7.754-5.66-17.16-9.168-27.371-9.695c-5.504-13.016-16.273-23.223-29.613-28.086
					c3.004-4.774,4.758-10.402,4.758-16.441c0-14.551-10.008-26.731-23.504-30.117c9.988-5.164,16.836-15.574,16.836-27.605
					c0-17.164-13.902-31.078-31.074-31.078c-6.535,0-12.586,2.027-17.598,5.469c-8.25-19.519-27.586-33.215-50.113-33.215
					c-17.102,0-32.32,7.902-42.289,20.242c-7.863-4.395-16.887-6.926-26.512-6.926c-28.191,0-51.355,21.438-54.121,48.879
					c-9.734,0.211-19.266,4-25.976,10.109c-2.535-15.055-11.625-27.16-28.961-31.035v248.269h500.109
					c-0.129,0-0.234-0.367-0.371-0.57c6.16-6.043,9.996-14.418,9.996-23.734c0-6.848-2.074-13.195-5.621-18.492
					c1.434-1.695,2.672-3.543,3.75-5.492C733.598,729.504,735.09,724.09,735.09,718.313z"/>
				<path style="opacity:0.3;fill:#FFFFFF;" d="M223.133,475.758c8.672,4.289,18.574,6.75,28.668,6.75
					c34.074,0,62.031-27.621,62.031-61.691c0-0.715,0.098-1.41,0.066-2.129c1.309,0.09,2.711,0.207,4.047,0.207
					c15.746,0,30.117-5.945,41.012-15.652c6.07,27.684,30.734,48.426,60.238,48.426c25.938,0,48.098-16.02,57.227-38.691
					c0.848,0.039,1.688,0.129,2.563,0.129c2.758,0,5.488-0.246,8.168-0.594c9,22.906,31.266,39.156,57.383,39.156
					c18.375,0,34.824-8.082,46.137-20.84c4.375,0.992,8.926,1.559,13.621,1.559c14.246,0,27.344-4.879,37.789-12.996
					c7.027,26.336,30.977,45.766,59.539,45.766c19.574,0,36.988-9.137,48.281-23.344c0.895,15.172,13.438,27.203,28.844,27.203
					c11.125,0,20.793-6.309,25.617-15.539c4.492-0.391,8.672-1.809,12.344-4.008c4.793,9.313,14.5,15.688,25.707,15.688
					c15.961,0,28.91-12.941,28.91-28.918c0-15.965-12.949-28.918-28.91-28.918c-5.43,0-10.504,1.527-14.844,4.133
					c-3.527-6.844-9.695-12.113-17.176-14.418c4.383-8.477,6.899-18.07,6.899-28.266c0-32.801-25.609-59.543-57.922-61.496
					c-0.926-33.262-28.109-59.957-61.59-59.957c-23.445,0-43.832,13.059-54.266,32.305c-4.258-0.938-8.691-1.465-13.223-1.465
					c-8.664,0-16.899,1.809-24.379,5.035c-11.012-16.938-30.051-28.16-51.742-28.16c-5.777,0-11.352,0.852-16.664,2.332
					c-8.508-16.293-24.059-28.316-42.629-31.988c-8.324-24.234-31.25-41.676-58.301-41.676c-12.688,0-24.449,3.828-34.262,10.387
					c-2.988-0.445-6.031-0.75-9.137-0.75c-24.957,0-46.383,14.836-56.117,36.129c-10.574-11.867-25.648-19.594-42.574-20.535
					c-10.328-19.578-31.57-32.945-55.25-32.945c-5.34,0-10.328,0.746-16.105,2.023V475.758z"/>
			</g>
			<g style="clip-path:url(#SVGID_00000127036533856449200870000011749567548417810816_);">
				<g>
					<path style="fill:#808285;" d="M850.09,871.508h-0.273v28.035h-2.871h-3.91h-1.703h-8.527h-1.695h-8.574h-1.715h-8.516h-1.707
						h-6.781v-28.035h-0.281c-0.461,0-0.848-0.379-0.848-0.856c0-0.469,0.387-0.844,0.848-0.844h5.531
						c0.578-9.313,8.293-16.695,17.754-16.695c9.453,0,17.16,7.383,17.746,16.695h5.523c0.477,0,0.859,0.375,0.859,0.844
						C850.949,871.129,850.566,871.508,850.09,871.508z"/>
				</g>
				<g>
					<path style="fill:#808285;" d="M1639.68,871.508h-0.285v28.035h-2.891h-3.891h-1.695h-8.535h-1.695h-8.594h-1.688h-8.523
						h-1.707h-6.793v-28.035h-0.273c-0.477,0-0.848-0.379-0.848-0.856c0-0.469,0.371-0.844,0.848-0.844h5.535
						c0.578-9.313,8.285-16.695,17.746-16.695c9.453,0,17.168,7.383,17.742,16.695h5.547c0.465,0,0.836,0.375,0.836,0.844
						C1640.516,871.129,1640.145,871.508,1639.68,871.508z"/>
					<path style="fill:#808285;" d="M826.82,935.363c0,0.523,0.422,0.938,0.938,0.938h0.313v181.109h896.273V781.434h-58.832
						v279.434h-5.43v-49.746h0.535c0.879,0,1.609-0.719,1.609-1.605c0-0.891-0.73-1.617-1.609-1.617h-6.227v-66.473h0.461
						c0.77,0,1.41-0.625,1.41-1.402c0-0.777-0.641-1.402-1.41-1.402h-7.574v-36.738h0.371c0.633,0,1.141-0.52,1.141-1.141
						c0-0.633-0.508-1.144-1.141-1.144h-62.52c-0.633,0-1.137,0.512-1.137,1.144c0,0.621,0.504,1.141,1.137,1.141h0.371v36.738
						h-7.57c-0.77,0-1.402,0.625-1.402,1.402c0,0.777,0.633,1.402,1.402,1.402h0.469v66.473h-3.832v-42.621h-23.035
						c-0.23-0.762-0.934-1.336-1.773-1.336h-4.063v-23.879h3.285l-5.184-31.715h-52.465l-5.184,31.715h3.293v23.879h-4.063
						c-0.848,0-1.527,0.574-1.781,1.336h-13.215v-92.801h1.004c1.695,0,3.078-1.379,3.078-3.078c0-1.699-1.383-3.074-3.078-3.074
						h-6.605v-56.777h5.34l-8.41-20.227h-21.777v-26h2.902c1.617,0,2.945-1.328,2.945-2.953c0-1.629-1.328-2.949-2.945-2.949
						h-10.289v-19.016h1.863c1.059,0,1.906-0.848,1.906-1.898c0-1.055-0.848-1.902-1.906-1.902h-13.977v-51.535h-2.609v51.535
						h-13.984c-1.051,0-1.898,0.848-1.898,1.902c0,1.051,0.848,1.898,1.898,1.898h1.871v19.016h-10.277
						c-1.641,0-2.945,1.32-2.945,2.949c0,1.625,1.305,2.953,2.945,2.953h2.891v26h-21.766l-8.43,20.227h5.348v56.777h-6.605
						c-1.695,0-3.07,1.375-3.07,3.074c0,1.699,1.375,3.078,3.07,3.078h0.996v112h-12.348V884.18h0.391
						c0.672,0,1.207-0.539,1.207-1.211c0-0.664-0.535-1.211-1.207-1.211h-66.211c-0.664,0-1.199,0.547-1.199,1.211
						c0,0.672,0.535,1.211,1.199,1.211h0.398v62.473l-24.086,13.715v-48.039h-3.488v50.023l-37.762,21.508v12.371h-15.23V965h-2.316
						v31.231h-14.832v-47.289l-21.398-0.356v-15.914c2.934-2.625,4.785-6.422,4.785-10.668c0-7.914-6.402-14.324-14.313-14.324
						c-7.922,0-14.336,6.41-14.336,14.324c0,4.246,1.852,8.043,4.785,10.668v15.602l-24.953-0.41v48.367h-18.543v-37.356h0.652
						c1.102,0,2.004-0.902,2.004-2.008c0-1.105-0.902-2.008-2.004-2.008h-6.531v-83.559h0.273c1.113,0,2-0.895,2-2.004
						c0-1.109-0.887-2.008-2-2.008h-6.324v-35.606h7.609l-23.297-40.352h-27.305l-23.285,40.352h7.609v35.606h-6.316
						c-1.109,0-2.004,0.898-2.004,2.008c0,1.109,0.895,2.004,2.004,2.004h0.266v83.559h-6.531c-0.184,0-0.348,0.059-0.516,0.102
						v-62.394h0.227c1.023,0,1.84-0.82,1.84-1.836c0-1.016-0.816-1.832-1.84-1.832h-65.219c-1.016,0-1.832,0.816-1.832,1.832
						c0,1.016,0.816,1.836,1.832,1.836h0.242v76.441h-5.98c-1.004,0-1.832,0.828-1.832,1.832c0,1.023,0.828,1.844,1.832,1.844h0.602
						v51.02h-15.852v-166.48h0.758c1.297,0,2.359-1.051,2.359-2.348c0-1.301-1.063-2.359-2.359-2.359h-5.035v-29.645h4.07
						l-6.441-39.375h-65.117l-6.441,39.375h4.082v29.645h-5.047c-1.297,0-2.359,1.059-2.359,2.359c0,1.297,1.063,2.348,2.359,2.348
						h0.758v77.203h-32.563C827.242,934.426,826.82,934.844,826.82,935.363z M1153.027,933.578c2.367,1.727,5.27,2.758,8.43,2.758
						c3.145,0,6.051-1.031,8.418-2.758v14.988l-16.848-0.273V933.578z M1024.715,958.766c0.168,0.051,0.332,0.109,0.516,0.109h0.656
						v10.133h-1.172V958.766z"/>
				</g>
				<g>
					<path style="fill:#808285;" d="M1311.359,871.508h-0.281v28.035h-2.887h-3.906h-1.695h-8.527h-1.703h-8.586h-1.688h-8.523
						h-1.695h-6.801v-28.035h-0.273c-0.477,0-0.848-0.379-0.848-0.856c0-0.469,0.371-0.844,0.848-0.844h5.523
						c0.574-9.313,8.281-16.695,17.746-16.695c9.461,0,17.188,7.383,17.742,16.695h5.555c0.457,0,0.84,0.375,0.84,0.844
						C1312.199,871.129,1311.816,871.508,1311.359,871.508z"/>
					<path style="fill:#808285;" d="M498.492,935.363c0,0.523,0.43,0.938,0.945,0.938h0.313v181.109h896.285V781.434h-58.855
						v279.434h-5.406v-49.746h0.527c0.875,0,1.598-0.719,1.598-1.605c0-0.891-0.723-1.617-1.598-1.617h-6.227v-66.473h0.445
						c0.789,0,1.414-0.625,1.414-1.402c0-0.777-0.625-1.402-1.414-1.402h-7.57v-36.738h0.371c0.633,0,1.141-0.52,1.141-1.141
						c0-0.633-0.508-1.144-1.141-1.144h-62.508c-0.625,0-1.141,0.512-1.141,1.144c0,0.621,0.516,1.141,1.141,1.141h0.379v36.738
						h-7.57c-0.789,0-1.402,0.625-1.402,1.402c0,0.777,0.613,1.402,1.402,1.402h0.449v66.473h-3.832v-42.621h-23.023
						c-0.246-0.762-0.938-1.336-1.773-1.336h-4.074v-23.879h3.293l-5.184-31.715h-52.461l-5.184,31.715h3.293v23.879h-4.074
						c-0.848,0-1.531,0.574-1.781,1.336h-13.215v-92.801h1.004c1.703,0,3.078-1.379,3.078-3.078c0-1.699-1.375-3.074-3.078-3.074
						h-6.586v-56.777h5.328l-8.41-20.227h-21.777v-26h2.895c1.629,0,2.941-1.328,2.941-2.953c0-1.629-1.313-2.949-2.941-2.949
						h-10.289v-19.016h1.871c1.051,0,1.898-0.848,1.898-1.898c0-1.055-0.848-1.902-1.898-1.902h-13.984v-51.535h-2.609v51.535
						h-13.973c-1.043,0-1.891,0.848-1.891,1.902c0,1.051,0.848,1.898,1.891,1.898h1.879v19.016h-10.301
						c-1.617,0-2.941,1.32-2.941,2.949c0,1.625,1.324,2.953,2.941,2.953h2.914v26h-21.789l-8.418,20.227h5.34v56.777h-6.598
						c-1.703,0-3.078,1.375-3.078,3.074c0,1.699,1.375,3.078,3.078,3.078h0.984v112h-12.344V884.18h0.398
						c0.664,0,1.207-0.539,1.207-1.211c0-0.664-0.543-1.211-1.207-1.211h-66.211c-0.664,0-1.207,0.547-1.207,1.211
						c0,0.672,0.543,1.211,1.207,1.211h0.391v62.473l-24.09,13.715v-48.039h-3.477v50.023l-37.758,21.508v12.371h-15.23V965h-2.328
						v31.231h-14.824v-47.289l-21.387-0.356v-15.914c2.934-2.625,4.785-6.422,4.785-10.668c0-7.914-6.422-14.324-14.336-14.324
						c-7.91,0-14.332,6.41-14.332,14.324c0,4.246,1.851,8.043,4.785,10.668v15.602l-24.945-0.41v48.367H780.09v-37.356h0.641
						c1.121,0,2.02-0.902,2.02-2.008c0-1.105-0.898-2.008-2.02-2.008h-6.516v-83.559h0.27c1.102,0,2-0.895,2-2.004
						c0-1.109-0.898-2.008-2-2.008h-6.324v-35.606h7.602l-23.289-40.352h-27.301l-23.301,40.352h7.613v35.606h-6.305
						c-1.113,0-2.02,0.898-2.02,2.008c0,1.109,0.906,2.004,2.02,2.004h0.254v83.559h-6.531c-0.183,0-0.352,0.059-0.516,0.102
						v-62.394h0.242c1.016,0,1.832-0.82,1.832-1.836c0-1.016-0.816-1.832-1.832-1.832h-65.234c-1.016,0-1.832,0.816-1.832,1.832
						c0,1.016,0.816,1.836,1.832,1.836h0.242v76.441h-5.973c-1.004,0-1.844,0.828-1.844,1.832c0,1.023,0.84,1.844,1.844,1.844h0.594
						v51.02h-15.852v-166.48h0.769c1.293,0,2.348-1.051,2.348-2.348c0-1.301-1.055-2.359-2.348-2.359h-5.051v-29.645h4.086
						l-6.441-39.375h-65.121l-6.449,39.375h4.102v29.645h-5.066c-1.297,0-2.348,1.059-2.348,2.359c0,1.297,1.051,2.348,2.348,2.348
						h0.77v77.203h-32.566C498.922,934.426,498.492,934.844,498.492,935.363z M824.707,933.578c2.367,1.727,5.262,2.758,8.418,2.758
						c3.168,0,6.063-1.031,8.422-2.758v14.988l-16.84-0.273V933.578z M696.387,958.766c0.164,0.051,0.332,0.109,0.516,0.109h0.652
						v10.133h-1.168V958.766z"/>
				</g>
				<path style="fill:#BEC0C2;" d="M1785.957,737.164h-82.121c-0.832,0-1.504,0.676-1.504,1.504c0,0.828,0.672,1.496,1.504,1.496
					h0.484v77.488l-81.031,253.242v15.336h-39.027v-81.129h0.945c1.621,0,2.926-1.316,2.926-2.926c0-1.617-1.305-2.922-2.926-2.922
					h-9.5V877.676h0.383c1.617,0,2.922-1.305,2.922-2.914c0-1.617-1.305-2.918-2.922-2.918h-103.758
					c-1.598,0-2.914,1.301-2.914,2.918c0,1.609,1.316,2.914,2.914,2.914h0.398v99.234c-0.262-0.067-0.535-0.16-0.828-0.16h-10.375
					V843.856h0.41c1.781,0,3.195-1.43,3.195-3.188c0-1.77-1.414-3.195-3.195-3.195h-10.039v-56.629H1464l-37.055-64.164h-43.422
					l-37.047,64.164h12.094v56.629h-10.035c-1.758,0-3.188,1.426-3.188,3.195c0,1.758,1.43,3.188,3.188,3.188h0.426V976.75h-10.387
					c-1.762,0-3.188,1.426-3.188,3.191c0,1.762,1.426,3.195,3.188,3.195h1.035v59.41h-29.508v-76.918l-104.047,1.707v75.211h-51.5
					v-19.672l-4.715-2.691v-56.227h-14.059V937.59h-2.281v26.367h-30.734V937.59h-2.262v26.367h-16.008v19.02l-33.84-19.277V718.598
					h0.613c1.063,0,1.918-0.863,1.918-1.918c0-1.063-0.855-1.914-1.918-1.914H945.973c-1.063,0-1.918,0.852-1.918,1.914
					c0,1.055,0.855,1.918,1.918,1.918h0.633v387.746h-5.574v-79.148h0.547c0.926,0,1.676-0.746,1.676-1.664
					c0-0.926-0.75-1.672-1.676-1.672h-33.977v-13.926c4.656-4.172,7.59-10.211,7.59-16.953c0-12.59-10.184-22.793-22.773-22.793
					c-12.59,0-22.801,10.203-22.801,22.793c0,6.742,2.953,12.781,7.609,16.953v13.926h-27.223c-0.938,0-1.676,0.746-1.676,1.672
					c0,0.918,0.738,1.664,1.676,1.664h0.547v79.148h-6.227v-72.516h0.836c1.422,0,2.563-1.152,2.563-2.57s-1.141-2.563-2.563-2.563
					h-8.34V921.918h0.34c1.414,0,2.574-1.145,2.574-2.566c0-1.414-1.16-2.563-2.574-2.563h-8.066V554.844h9.723l-28.754-49.805
					h2.144c1.41,0,2.563-1.148,2.563-2.563c0-1.418-1.152-2.566-2.563-2.566h-2.516v-24.836h2.516c1.41,0,2.563-1.145,2.563-2.57
					c0-1.41-1.152-2.563-2.563-2.563h-8.945V242.613l-23.328,159.531v67.797h-8.945c-1.414,0-2.555,1.152-2.555,2.563
					c0,1.426,1.141,2.57,2.555,2.57h2.512v24.836h-2.512c-1.414,0-2.555,1.148-2.555,2.566c0,1.414,1.141,2.563,2.555,2.563h2.152
					l-28.766,49.805h9.734v361.945h-8.066c-1.414,0-2.563,1.148-2.563,2.563c0,1.422,1.148,2.566,2.563,2.566h0.34v106.777h-8.359
					c-1.402,0-2.555,1.145-2.555,2.563s1.152,2.57,2.555,2.57h0.84v27.277h-7.125V955.387h0.731c1.226,0,2.23-1.004,2.23-2.238
					c0-1.227-1.004-2.23-2.23-2.23H610.141c-1.238,0-2.23,1.004-2.23,2.23c0,1.234,0.992,2.238,2.23,2.238h0.711v105.719h-18.719
					V955.387h0.73c1.238,0,2.234-1.004,2.234-2.238c0-1.227-0.996-2.23-2.234-2.23h-12.051v-58.43h0.594
					c1.004,0,1.813-0.82,1.813-1.813c0-1.004-0.809-1.816-1.813-1.816h-13.117v-39.547h0.43c0.75,0,1.344-0.609,1.344-1.356
					c0-0.75-0.594-1.351-1.344-1.351h-8.809c-0.906-14.805-13.176-26.551-28.211-26.551c-15.035,0-27.312,11.746-28.226,26.551
					h-8.801c-0.738,0-1.352,0.601-1.352,1.351c0,0.746,0.613,1.356,1.352,1.356h0.449v39.547h-13.137
					c-0.992,0-1.813,0.813-1.813,1.816c0,0.992,0.82,1.813,1.813,1.813h0.586v58.43h-12.035c-1.227,0-2.238,1.004-2.238,2.23
					c0,1.234,1.012,2.238,2.238,2.238h0.715v105.719h-9.871c-1.426,0-2.574,1.156-2.574,2.563c0,1.418,1.148,2.566,2.574,2.566
					h0.816v79.113h-8.605v-51.277h-13.68v-88.883h-14.82v-82.051l-54.254,38.68v43.371h-14.813v88.883h-13.672v51.277h-8.477
					v122.824h1451.594V740.164h0.488c0.84,0,1.512-0.668,1.512-1.496C1787.469,737.84,1786.797,737.164,1785.957,737.164z
					 M905.809,1023.859h-26.789v-12.477c3.762,2.742,8.383,4.387,13.399,4.387c5.012,0,9.637-1.644,13.391-4.387V1023.859z
					 M1472.73,999.254h-1.859v-16.117h1.031c0.293,0,0.566-0.098,0.828-0.164V999.254z"/>
			</g>
			
				<rect x="-67.176" y="1269.902" style="clip-path:url(#SVGID_00000127036533856449200870000011749567548417810816_);fill:#D7BD9A;" width="2255.684" height="388.102"/>
		</g>
	</g>
	<g>
		<g>
			<g>
				<path style="fill:#048350;" d="M1766.383,1656.316h51.164c10.633,0,19.254,8.613,19.254,19.246
					c0,10.629-8.621,19.254-19.254,19.254h-51.164c-10.621,0-19.234-8.625-19.234-19.254
					C1747.148,1664.93,1755.762,1656.316,1766.383,1656.316z"/>
				<path style="fill:#048350;" d="M1094.875,1830.488h51.156c10.641,0,19.254,8.613,19.254,19.25
					c0,10.629-8.613,19.25-19.254,19.25h-51.156c-10.633,0-19.254-8.621-19.254-19.25
					C1075.621,1839.102,1084.242,1830.488,1094.875,1830.488z"/>
				<path style="fill:#048350;" d="M1391.484,1958.102h51.168c10.629,0,19.246,8.621,19.246,19.246
					c0,10.637-8.617,19.254-19.246,19.254h-51.168c-10.629,0-19.242-8.617-19.242-19.254
					C1372.242,1966.723,1380.855,1958.102,1391.484,1958.102z"/>
				<path style="fill:#048350;" d="M1736.855,1874.488h51.168c10.641,0,19.266,8.625,19.266,19.254
					c0,10.625-8.625,19.25-19.266,19.25h-51.168c-10.621,0-19.242-8.625-19.242-19.25
					C1717.613,1883.113,1726.234,1874.488,1736.855,1874.488z"/>
				<path style="fill:#1DB470;" d="M770.559,1725.973h15.961c10.633,0,19.246,8.617,19.246,19.25
					c0,10.629-8.613,19.246-19.246,19.246h-15.961c-10.641,0-19.254-8.617-19.254-19.246
					C751.305,1734.59,759.918,1725.973,770.559,1725.973z"/>
				<path style="fill:#048350;" d="M1746.465,1566.121h-2.594c0.578,0,1.133-0.047,1.707-0.09c-4.18-0.285-8.02-1.684-11.363-3.785
					h-640.121v-100.07H697.457v247.145h136.117c3.996,2.754,8.82,4.371,14.031,4.371h-7.316c13.672,0,24.758,11.078,24.758,24.75
					s-11.086,24.75-24.758,24.75h7.316c-13.672,0-24.75,11.09-24.75,24.758c0,13.664,11.078,24.75,24.75,24.75h394.59
					c13.672,0,24.762,11.082,24.762,24.758c0,13.664-11.09,24.754-24.762,24.754h-2.535c-13.668,0-24.758,11.082-24.758,24.75
					c0,13.672,11.09,24.754,24.758,24.754h340.258c13.672,0,24.758-11.082,24.758-24.754c0-13.668-11.086-24.75-24.758-24.75h-2.594
					c0.578,0,1.141-0.051,1.715-0.09c-12.879-0.879-23.043-11.574-23.043-24.664c0-13.098,10.164-23.781,23.043-24.668
					c-0.574-0.039-1.137-0.09-1.715-0.09h92.504c13.668,0,24.75-11.086,24.75-24.75c0-13.668-11.082-24.758-24.75-24.758h-3.129
					c0.574,0,1.129-0.043,1.707-0.09c-12.875-0.871-23.047-11.566-23.047-24.66c0-13.098,10.172-23.785,23.047-24.664
					c-0.578-0.039-1.133-0.086-1.707-0.086h3.129c13.668,0,24.75-11.086,24.75-24.758c0-13.664-11.082-24.754-24.75-24.754h-3.129
					c0.574,0,1.129-0.043,1.707-0.086c-12.875-0.879-23.047-11.566-23.047-24.664c0-11.352,7.648-20.891,18.086-23.805h83.02
					c13.672,0,24.75-11.078,24.75-24.75S1760.137,1566.121,1746.465,1566.121z"/>
			</g>
		</g>
		<path style="fill:#048350;" d="M1769.109,1195.902c0,14.781-11.977,26.758-26.746,26.758H291.176
			c-14.773,0-26.758-11.977-26.758-26.758l0,0c0-14.773,11.984-26.754,26.758-26.754h1451.188
			C1757.133,1169.148,1769.109,1181.129,1769.109,1195.902L1769.109,1195.902z"/>
		<path style="fill:#3F6266;" d="M1769.109,1249.414c0,14.785-11.977,26.758-26.746,26.758H291.176
			c-14.773,0-26.758-11.973-26.758-26.758l0,0c0-14.77,11.984-26.754,26.758-26.754h1451.188
			C1757.133,1222.66,1769.109,1234.645,1769.109,1249.414L1769.109,1249.414z"/>
		<g>
			<g>
				<path style="fill:#048350;" d="M223.074,1402.195H160.73c-12.957,0-23.453,10.504-23.453,23.449
					c0,12.953,10.496,23.457,23.453,23.457h62.344c12.949,0,23.445-10.504,23.445-23.457
					C246.52,1412.699,236.023,1402.195,223.074,1402.195z"/>
				<path style="fill:#1DB470;" d="M1208.16,1709.324h-62.324c-12.961,0-23.465,10.496-23.465,23.453
					c0,12.953,10.504,23.457,23.465,23.457h62.324c12.957,0,23.461-10.504,23.461-23.457
					C1231.621,1719.82,1221.117,1709.324,1208.16,1709.324z"/>
				<path style="fill:#1DB470;" d="M846.789,1864.801h-62.336c-12.957,0-23.453,10.508-23.453,23.457
					c0,12.957,10.496,23.457,23.453,23.457h62.336c12.949,0,23.453-10.5,23.453-23.457
					C870.242,1875.309,859.738,1864.801,846.789,1864.801z"/>
				<path style="fill:#1DB470;" d="M425.988,1762.938h-62.344c-12.961,0-23.457,10.504-23.457,23.449
					c0,12.953,10.496,23.457,23.457,23.457h62.344c12.949,0,23.441-10.504,23.441-23.457
					C449.43,1773.441,438.938,1762.938,425.988,1762.938z"/>
				<path style="fill:#1DB470;" d="M1603.293,1581.988h-19.438c-12.949,0-23.457,10.496-23.457,23.453
					c0,12.945,10.508,23.449,23.457,23.449h19.438c12.969,0,23.457-10.504,23.457-23.449
					C1626.75,1592.484,1616.262,1581.988,1603.293,1581.988z"/>
				<path style="fill:#1DB470;" d="M1960.582,1462.738h-19.43c-12.949,0-23.465,10.5-23.465,23.457s10.516,23.453,23.465,23.453
					h19.43c12.969,0,23.465-10.496,23.465-23.453S1973.551,1462.738,1960.582,1462.738z"/>
				<path style="fill:#1DB470;" d="M1857.246,1276.172h-19.449c-12.941,0-23.445,10.504-23.445,23.457
					c0,12.957,10.504,23.453,23.445,23.453h19.449c12.961,0,23.453-10.496,23.453-23.453
					C1880.699,1286.676,1870.207,1276.172,1857.246,1276.172z"/>
				<g>
					<path style="fill:#66959A;" d="M1789.25,1298.535c0-14.906-10.844-27.262-25.07-29.692H313.559
						c-4.512,3.363-9.988,5.496-15.941,5.91c0.691,0.047,1.375,0.105,2.074,0.105h-3.809c-16.664,0-30.156,13.504-30.156,30.168
						c0,16.641,13.492,30.141,30.156,30.141h112.699c-0.699,0-1.383,0.07-2.082,0.117c15.688,1.074,28.082,14.098,28.082,30.047
						c0,15.957-12.395,28.984-28.082,30.055c0.699,0.051,1.383,0.098,2.082,0.098h-3.164c-16.652,0-30.148,13.512-30.148,30.168
						c0,16.652,13.496,30.152,30.148,30.152h101.164c12.695,3.547,22.02,15.168,22.02,29.004c0,15.953-12.395,28.98-28.07,30.051
						c0.691,0.051,1.371,0.105,2.074,0.105h-3.813c-16.66,0-30.164,13.508-30.164,30.156c0,16.656,13.504,30.164,30.164,30.164
						h3.813c-0.703,0-1.383,0.059-2.074,0.105c15.676,1.066,28.07,14.098,28.07,30.051s-12.395,28.98-28.07,30.051
						c0.691,0.047,1.371,0.109,2.074,0.109h-3.813c-16.66,0-30.164,13.504-30.164,30.16c0,16.648,13.504,30.148,30.164,30.148
						h112.703c-0.703,0-1.383,0.059-2.086,0.113c15.688,1.074,28.082,14.094,28.082,30.051c0,15.953-12.395,28.98-28.082,30.051
						c0.703,0.043,1.383,0.109,2.086,0.109h-3.168c-16.652,0-30.156,13.504-30.156,30.156c0,16.66,13.504,30.16,30.156,30.16
						h414.566c16.652,0,30.156-13.5,30.156-30.16c0-16.652-13.504-30.156-30.156-30.156h-3.09c-16.652,0-30.156-13.508-30.156-30.16
						c0-16.66,13.504-30.164,30.156-30.164h480.758c16.652,0,30.148-13.5,30.148-30.148c0-16.656-13.496-30.16-30.148-30.16h8.906
						c-16.652,0-30.16-13.508-30.16-30.16c0-16.656,13.508-30.156,30.16-30.156h-8.906c6.352,0,12.227-1.98,17.082-5.32h241.449
						c16.66,0,30.156-13.508,30.156-30.16c0-16.656-13.496-30.156-30.156-30.156h-3.813c0.695,0,1.387-0.059,2.078-0.102
						c-15.68-1.078-28.074-14.102-28.074-30.059c0-15.949,12.395-28.977,28.074-30.051c-0.691-0.047-1.383-0.105-2.078-0.105h3.813
						c16.66,0,30.156-13.508,30.156-30.16s-13.496-30.152-30.156-30.152h-3.813c0.695,0,1.387-0.063,2.078-0.117
						c-15.68-1.066-28.074-14.086-28.074-30.047c0-15.949,12.395-28.977,28.074-30.051c-0.691-0.047-1.383-0.105-2.078-0.105h3.813
						C1775.754,1328.699,1789.25,1315.199,1789.25,1298.535z"/>
				</g>
			</g>
		</g>
	</g>
</g>
<g>
	<g>
		<g>
			<g>
				<rect x="161.234" y="1132.949" style="fill:#FDE4DA;" width="550.875" height="229.188"/>
				<rect x="161.234" y="1132.949" style="fill:#B8A7A2;" width="137.656" height="229.188"/>
				<g>
					<g>
						<rect x="694.234" y="1141.832" style="fill:#BABABD;" width="8.188" height="211.418"/>
						<rect x="693.769" y="1141.832" style="fill:#B8A7A2;" width="2.977" height="211.418"/>
					</g>
					<g>
						<rect x="677.824" y="1141.832" style="fill:#BABABD;" width="8.203" height="211.418"/>
						<rect x="677.359" y="1141.832" style="fill:#B8A7A2;" width="2.984" height="211.418"/>
					</g>
					<g>
						<rect x="661.418" y="1141.832" style="fill:#BABABD;" width="8.207" height="211.418"/>
						<rect x="660.957" y="1141.832" style="fill:#B8A7A2;" width="2.977" height="211.418"/>
					</g>
					<g>
						<rect x="645.019" y="1141.832" style="fill:#BABABD;" width="8.188" height="211.418"/>
						<rect x="644.559" y="1141.832" style="fill:#B8A7A2;" width="2.977" height="211.418"/>
					</g>
					<g>
						<rect x="628.621" y="1141.832" style="fill:#BABABD;" width="8.184" height="211.418"/>
						<rect x="628.148" y="1141.832" style="fill:#B8A7A2;" width="2.98" height="211.418"/>
					</g>
					<g>
						<rect x="612.211" y="1141.832" style="fill:#BABABD;" width="8.207" height="211.418"/>
						<rect x="611.754" y="1141.832" style="fill:#B8A7A2;" width="2.977" height="211.418"/>
					</g>
					<g>
						<rect x="595.809" y="1141.832" style="fill:#BABABD;" width="8.203" height="211.418"/>
						<rect x="595.344" y="1141.832" style="fill:#B8A7A2;" width="2.977" height="211.418"/>
					</g>
					<g>
						<rect x="579.41" y="1141.832" style="fill:#BABABD;" width="8.191" height="211.418"/>
						<rect x="578.945" y="1141.832" style="fill:#B8A7A2;" width="2.973" height="211.418"/>
					</g>
					<g>
						<rect x="563.004" y="1141.832" style="fill:#BABABD;" width="8.199" height="211.418"/>
						<rect x="562.535" y="1141.832" style="fill:#B8A7A2;" width="2.984" height="211.418"/>
					</g>
					<g>
						<rect x="546.602" y="1141.832" style="fill:#BABABD;" width="8.199" height="211.418"/>
						<rect x="546.137" y="1141.832" style="fill:#B8A7A2;" width="2.98" height="211.418"/>
					</g>
					<g>
						<rect x="530.195" y="1141.832" style="fill:#BABABD;" width="8.199" height="211.418"/>
						<rect x="529.742" y="1141.832" style="fill:#B8A7A2;" width="2.969" height="211.418"/>
					</g>
					<g>
						<rect x="513.793" y="1141.832" style="fill:#BABABD;" width="8.203" height="211.418"/>
						<rect x="513.328" y="1141.832" style="fill:#B8A7A2;" width="2.977" height="211.418"/>
					</g>
					<g>
						<rect x="497.398" y="1141.832" style="fill:#BABABD;" width="8.188" height="211.418"/>
						<rect x="496.926" y="1141.832" style="fill:#B8A7A2;" width="2.984" height="211.418"/>
					</g>
					<g>
						<rect x="480.988" y="1141.832" style="fill:#BABABD;" width="8.188" height="211.418"/>
						<rect x="480.523" y="1141.832" style="fill:#B8A7A2;" width="2.984" height="211.418"/>
					</g>
					<g>
						<rect x="464.578" y="1141.832" style="fill:#BABABD;" width="8.203" height="211.418"/>
						<rect x="464.121" y="1141.832" style="fill:#B8A7A2;" width="2.98" height="211.418"/>
					</g>
					<g>
						<rect x="448.184" y="1141.832" style="fill:#BABABD;" width="8.199" height="211.418"/>
						<rect x="447.715" y="1141.832" style="fill:#B8A7A2;" width="2.977" height="211.418"/>
					</g>
					<g>
						<rect x="431.785" y="1141.832" style="fill:#BABABD;" width="8.188" height="211.418"/>
						<rect x="431.313" y="1141.832" style="fill:#B8A7A2;" width="2.981" height="211.418"/>
					</g>
					<g>
						<rect x="415.379" y="1141.832" style="fill:#BABABD;" width="8.195" height="211.418"/>
						<rect x="414.914" y="1141.832" style="fill:#B8A7A2;" width="2.98" height="211.418"/>
					</g>
					<g>
						<rect x="398.977" y="1141.832" style="fill:#BABABD;" width="8.195" height="211.418"/>
						<rect x="398.512" y="1141.832" style="fill:#B8A7A2;" width="2.984" height="211.418"/>
					</g>
					<g>
						<rect x="382.578" y="1141.832" style="fill:#BABABD;" width="8.188" height="211.418"/>
						<rect x="382.113" y="1141.832" style="fill:#B8A7A2;" width="2.969" height="211.418"/>
					</g>
					<g>
						<rect x="366.168" y="1141.832" style="fill:#BABABD;" width="8.199" height="211.418"/>
						<rect x="365.715" y="1141.832" style="fill:#B8A7A2;" width="2.965" height="211.418"/>
					</g>
					<g>
						<rect x="349.77" y="1141.832" style="fill:#BABABD;" width="8.191" height="211.418"/>
						<rect x="349.305" y="1141.832" style="fill:#B8A7A2;" width="2.977" height="211.418"/>
					</g>
					<g>
						<rect x="333.367" y="1141.832" style="fill:#BABABD;" width="8.195" height="211.418"/>
						<rect x="332.902" y="1141.832" style="fill:#B8A7A2;" width="2.969" height="211.418"/>
					</g>
					<g>
						<rect x="316.965" y="1141.832" style="fill:#BABABD;" width="8.195" height="211.418"/>
						<rect x="316.5" y="1141.832" style="fill:#B8A7A2;" width="2.973" height="211.418"/>
					</g>
				</g>
			</g>
		</g>
		<g>
			<g>
				<path style="fill:#19110E;" d="M313.531,1405.586c-0.797,17.383-15.527,30.828-32.902,30.039
					c-17.395-0.789-30.836-15.527-30.043-32.898c0.801-17.391,15.524-30.836,32.906-30.039
					C300.867,1373.469,314.324,1388.203,313.531,1405.586z"/>
				<path d="M303.766,1405.141c-0.539,11.992-10.707,21.273-22.699,20.723c-11.988-0.547-21.262-10.703-20.715-22.699
					c0.539-11.996,10.703-21.277,22.699-20.73C295.035,1382.984,304.32,1393.152,303.766,1405.141z"/>
			</g>
			<g>
				<path style="fill:#19110E;" d="M383.336,1405.586c-0.793,17.383-15.527,30.828-32.906,30.039s-30.824-15.527-30.035-32.898
					c0.789-17.391,15.527-30.836,32.895-30.039C370.68,1373.469,384.129,1388.203,383.336,1405.586z"/>
				<path d="M373.578,1405.141c-0.547,11.992-10.719,21.273-22.703,20.723c-11.988-0.547-21.262-10.703-20.719-22.699
					c0.543-11.996,10.699-21.277,22.699-20.73C364.844,1382.984,374.117,1393.152,373.578,1405.141z"/>
			</g>
			<g>
				<path style="fill:#19110E;" d="M243.723,1405.586c-0.789,17.383-15.52,30.828-32.902,30.039s-30.824-15.527-30.035-32.898
					c0.785-17.391,15.516-30.836,32.894-30.039C231.066,1373.469,244.516,1388.203,243.723,1405.586z"/>
				<path d="M233.969,1405.141c-0.551,11.992-10.715,21.273-22.699,20.723c-11.996-0.547-21.277-10.703-20.734-22.699
					c0.555-11.996,10.719-21.277,22.703-20.73C225.234,1382.984,234.516,1393.152,233.969,1405.141z"/>
			</g>
			<g>
				<path style="fill:#19110E;" d="M453.148,1405.586c-0.801,17.383-15.531,30.828-32.906,30.039
					c-17.387-0.789-30.832-15.527-30.051-32.898c0.801-17.391,15.531-30.836,32.906-30.039
					C440.48,1373.469,453.934,1388.203,453.148,1405.586z"/>
				<path d="M443.375,1405.141c-0.547,11.992-10.699,21.273-22.699,20.723c-11.988-0.547-21.266-10.703-20.719-22.699
					c0.555-11.996,10.707-21.277,22.703-20.73C434.645,1382.984,443.926,1393.152,443.375,1405.141z"/>
			</g>
			<g>
				<path style="fill:#19110E;" d="M653.762,1405.586c-0.789,17.383-15.519,30.828-32.898,30.039
					c-17.387-0.789-30.832-15.527-30.039-32.898c0.785-17.391,15.523-30.836,32.91-30.039
					C641.113,1373.469,654.551,1388.203,653.762,1405.586z"/>
				<path d="M644.008,1405.141c-0.547,11.992-10.715,21.273-22.703,20.723c-12-0.547-21.273-10.703-20.727-22.699
					c0.547-11.996,10.707-21.277,22.695-20.73C635.277,1382.984,644.559,1393.152,644.008,1405.141z"/>
			</g>
			<g>
				<path style="fill:#19110E;" d="M723.566,1405.586c-0.789,17.383-15.52,30.828-32.895,30.039
					c-17.395-0.789-30.84-15.527-30.047-32.898c0.789-17.391,15.523-30.836,32.906-30.039
					C710.91,1373.469,724.363,1388.203,723.566,1405.586z"/>
				<path d="M713.813,1405.141c-0.543,11.992-10.707,21.273-22.691,20.723c-12.008-0.547-21.273-10.703-20.738-22.699
					c0.547-11.996,10.711-21.277,22.707-20.73C705.074,1382.984,714.359,1393.152,713.813,1405.141z"/>
			</g>
			<g>
				<rect x="162.34" y="1362.137" style="fill:#19110E;" width="569.09" height="37.844"/>
				<rect x="152.152" y="1362.137" style="fill:#F47E48;" width="588.352" height="10.512"/>
				<polygon style="fill:#19110E;" points="625.777,1298 625.777,1362.137 630.644,1362.137 630.644,1302.867 639.406,1302.867 
					639.406,1362.137 644.281,1362.137 644.281,1302.867 653.055,1302.867 653.055,1362.137 657.926,1362.137 657.926,1302.867 
					666.688,1302.867 666.688,1362.137 671.563,1362.137 671.563,1302.867 680.332,1302.867 680.332,1362.137 685.195,1362.137 
					685.195,1302.867 693.969,1302.867 693.969,1362.137 698.836,1362.137 698.836,1302.867 707.617,1302.867 707.617,1362.137 
					712.469,1362.137 712.469,1302.867 721.254,1302.867 721.254,1362.137 726.109,1362.137 726.109,1302.867 735.644,1302.867 
					735.644,1362.137 740.504,1362.137 740.504,1298 				"/>
			</g>
			<rect x="454.68" y="1381.059" style="fill:#3E3531;" width="142.094" height="27.676"/>
			<rect x="454.68" y="1408.734" style="fill:#19110E;" width="142.094" height="14.445"/>
		</g>
		<g>
			<g>
				<path style="fill:#19110E;" d="M919.406,1405.586c-0.789,17.383-15.52,30.828-32.898,30.039
					c-17.387-0.789-30.832-15.527-30.035-32.898c0.781-17.391,15.52-30.836,32.898-30.039
					C906.75,1373.469,920.195,1388.203,919.406,1405.586z"/>
				<path d="M909.652,1405.141c-0.551,11.992-10.715,21.273-22.703,20.723c-12-0.547-21.269-10.703-20.727-22.699
					c0.547-11.996,10.703-21.277,22.703-20.73C900.91,1382.984,910.191,1393.152,909.652,1405.141z"/>
			</g>
			<g>
				<path style="fill:#19110E;" d="M989.215,1405.586c-0.793,17.383-15.527,30.828-32.898,30.039
					c-17.395-0.789-30.84-15.527-30.047-32.898c0.797-17.391,15.524-30.836,32.906-30.039
					C976.551,1373.469,990.008,1388.203,989.215,1405.586z"/>
				<path d="M979.453,1405.141c-0.543,11.992-10.711,21.273-22.699,20.723c-12-0.547-21.262-10.703-20.723-22.699
					c0.543-11.996,10.707-21.277,22.703-20.73C970.719,1382.984,980.004,1393.152,979.453,1405.141z"/>
			</g>
			<g>
				<path style="fill:#19110E;" d="M849.605,1405.586c-0.797,17.383-15.527,30.828-32.898,30.039
					c-17.394-0.789-30.84-15.527-30.047-32.898c0.789-17.391,15.523-30.836,32.906-30.039
					C836.941,1373.469,850.387,1388.203,849.605,1405.586z"/>
				<path d="M839.844,1405.141c-0.555,11.992-10.719,21.273-22.703,20.723c-11.984-0.547-21.262-10.703-20.727-22.699
					c0.555-11.996,10.711-21.277,22.711-20.73C831.113,1382.984,840.391,1393.152,839.844,1405.141z"/>
			</g>
			<g>
				<path style="fill:#19110E;" d="M1059.023,1405.586c-0.801,17.383-15.527,30.828-32.91,30.039
					c-17.383-0.789-30.836-15.527-30.039-32.898c0.801-17.391,15.531-30.836,32.906-30.039
					C1046.363,1373.469,1059.82,1388.203,1059.023,1405.586z"/>
				<path d="M1049.262,1405.141c-0.551,11.992-10.715,21.273-22.703,20.723c-11.992-0.547-21.258-10.703-20.723-22.699
					c0.551-11.996,10.711-21.277,22.699-20.73C1040.527,1382.984,1049.801,1393.152,1049.262,1405.141z"/>
			</g>
			<g>
				<path style="fill:#19110E;" d="M1259.637,1405.586c-0.789,17.383-15.516,30.828-32.902,30.039
					c-17.383-0.789-30.824-15.527-30.035-32.898c0.785-17.391,15.52-30.836,32.91-30.039
					C1246.984,1373.469,1260.43,1388.203,1259.637,1405.586z"/>
				<path d="M1249.879,1405.141c-0.535,11.992-10.711,21.273-22.695,20.723c-11.996-0.547-21.27-10.703-20.727-22.699
					c0.539-11.996,10.711-21.277,22.707-20.73C1241.152,1382.984,1250.43,1393.152,1249.879,1405.141z"/>
			</g>
			<g>
				<path style="fill:#19110E;" d="M1329.449,1405.586c-0.789,17.383-15.523,30.828-32.895,30.039
					c-17.395-0.789-30.844-15.527-30.047-32.898c0.785-17.391,15.527-30.836,32.91-30.039
					C1316.785,1373.469,1330.234,1388.203,1329.449,1405.586z"/>
				<path d="M1319.695,1405.141c-0.555,11.992-10.719,21.273-22.703,20.723c-12-0.547-21.273-10.703-20.727-22.699
					c0.535-11.996,10.707-21.277,22.699-20.73C1310.961,1382.984,1320.23,1393.152,1319.695,1405.141z"/>
			</g>
			<g>
				<rect x="768.215" y="1362.137" style="fill:#19110E;" width="569.098" height="37.844"/>
				<rect x="758.031" y="1362.137" style="fill:#F47E48;" width="588.352" height="10.512"/>
				<polygon style="fill:#19110E;" points="1231.656,1298 1231.656,1362.137 1236.523,1362.137 1236.523,1302.867 
					1245.289,1302.867 1245.289,1362.137 1250.156,1362.137 1250.156,1302.867 1258.938,1302.867 1258.938,1362.137 
					1263.797,1362.137 1263.797,1302.867 1272.574,1302.867 1272.574,1362.137 1277.43,1362.137 1277.43,1302.867 
					1286.215,1302.867 1286.215,1362.137 1291.078,1362.137 1291.078,1302.867 1299.855,1302.867 1299.855,1362.137 
					1304.703,1362.137 1304.703,1302.867 1313.488,1302.867 1313.488,1362.137 1318.352,1362.137 1318.352,1302.867 
					1327.129,1302.867 1327.129,1362.137 1331.988,1362.137 1331.988,1302.867 1341.516,1302.867 1341.516,1362.137 
					1346.383,1362.137 1346.383,1298 				"/>
			</g>
			<rect x="1060.559" y="1381.059" style="fill:#3E3531;" width="142.102" height="27.676"/>
			<rect x="1060.559" y="1408.734" style="fill:#19110E;" width="142.102" height="14.445"/>
		</g>
		<g>
			<g>
				<rect x="1372.984" y="1132.949" style="fill:#F26B30;" width="550.887" height="229.188"/>
				<rect x="1372.984" y="1132.949" style="fill:#F26B30;" width="137.656" height="229.188"/>
				<g>
					<g>
						<rect x="1905.977" y="1141.832" style="fill:#9C5525;" width="8.211" height="211.418"/>
						<rect x="1905.523" y="1141.832" style="fill:#B8A7A2;" width="2.977" height="211.418"/>
					</g>
					<g>
						<rect x="1889.582" y="1141.832" style="fill:#9C5525;" width="8.199" height="211.418"/>
						<rect x="1889.113" y="1141.832" style="fill:#B8A7A2;" width="2.988" height="211.418"/>
					</g>
					<g>
						<rect x="1873.184" y="1141.832" style="fill:#9C5525;" width="8.195" height="211.418"/>
						<rect x="1872.715" y="1141.832" style="fill:#B8A7A2;" width="2.977" height="211.418"/>
					</g>
					<g>
						<rect x="1856.773" y="1141.832" style="fill:#9C5525;" width="8.195" height="211.418"/>
						<rect x="1856.309" y="1141.832" style="fill:#B8A7A2;" width="2.984" height="211.418"/>
					</g>
					<g>
						<rect x="1840.363" y="1141.832" style="fill:#9C5525;" width="8.211" height="211.418"/>
						<rect x="1839.906" y="1141.832" style="fill:#B8A7A2;" width="2.98" height="211.418"/>
					</g>
					<g>
						<rect x="1823.969" y="1141.832" style="fill:#9C5525;" width="8.207" height="211.418"/>
						<rect x="1823.496" y="1141.832" style="fill:#B8A7A2;" width="2.992" height="211.418"/>
					</g>
					<g>
						<rect x="1807.57" y="1141.832" style="fill:#9C5525;" width="8.199" height="211.418"/>
						<rect x="1807.105" y="1141.832" style="fill:#B8A7A2;" width="2.973" height="211.418"/>
					</g>
					<g>
						<rect x="1791.156" y="1141.832" style="fill:#9C5525;" width="8.203" height="211.418"/>
						<rect x="1790.699" y="1141.832" style="fill:#B8A7A2;" width="2.98" height="211.418"/>
					</g>
					<g>
						<rect x="1774.762" y="1141.832" style="fill:#9C5525;" width="8.195" height="211.418"/>
						<rect x="1774.305" y="1141.832" style="fill:#B8A7A2;" width="2.977" height="211.418"/>
					</g>
					<g>
						<rect x="1758.355" y="1141.832" style="fill:#9C5525;" width="8.207" height="211.418"/>
						<rect x="1757.898" y="1141.832" style="fill:#B8A7A2;" width="2.973" height="211.418"/>
					</g>
					<g>
						<rect x="1741.957" y="1141.832" style="fill:#9C5525;" width="8.195" height="211.418"/>
						<rect x="1741.496" y="1141.832" style="fill:#B8A7A2;" width="2.973" height="211.418"/>
					</g>
					<g>
						<rect x="1725.551" y="1141.832" style="fill:#9C5525;" width="8.191" height="211.418"/>
						<rect x="1725.086" y="1141.832" style="fill:#B8A7A2;" width="2.977" height="211.418"/>
					</g>
					<g>
						<rect x="1709.16" y="1141.832" style="fill:#9C5525;" width="8.195" height="211.418"/>
						<rect x="1708.676" y="1141.832" style="fill:#B8A7A2;" width="2.992" height="211.418"/>
					</g>
					<g>
						<rect x="1692.75" y="1141.832" style="fill:#9C5525;" width="8.195" height="211.418"/>
						<rect x="1692.281" y="1141.832" style="fill:#B8A7A2;" width="2.977" height="211.418"/>
					</g>
					<g>
						<rect x="1676.34" y="1141.832" style="fill:#9C5525;" width="8.199" height="211.418"/>
						<rect x="1675.879" y="1141.832" style="fill:#B8A7A2;" width="2.984" height="211.418"/>
					</g>
					<g>
						<rect x="1659.945" y="1141.832" style="fill:#9C5525;" width="8.191" height="211.418"/>
						<rect x="1659.473" y="1141.832" style="fill:#B8A7A2;" width="2.984" height="211.418"/>
					</g>
					<g>
						<rect x="1643.539" y="1141.832" style="fill:#9C5525;" width="8.188" height="211.418"/>
						<rect x="1643.074" y="1141.832" style="fill:#B8A7A2;" width="2.98" height="211.418"/>
					</g>
					<g>
						<rect x="1627.137" y="1141.832" style="fill:#9C5525;" width="8.195" height="211.418"/>
						<rect x="1626.676" y="1141.832" style="fill:#B8A7A2;" width="2.98" height="211.418"/>
					</g>
					<g>
						<rect x="1610.73" y="1141.832" style="fill:#9C5525;" width="8.191" height="211.418"/>
						<rect x="1610.277" y="1141.832" style="fill:#B8A7A2;" width="2.965" height="211.418"/>
					</g>
					<g>
						<rect x="1594.328" y="1141.832" style="fill:#9C5525;" width="8.199" height="211.418"/>
						<rect x="1593.867" y="1141.832" style="fill:#B8A7A2;" width="2.965" height="211.418"/>
					</g>
					<g>
						<rect x="1577.926" y="1141.832" style="fill:#9C5525;" width="8.195" height="211.418"/>
						<rect x="1577.457" y="1141.832" style="fill:#B8A7A2;" width="2.98" height="211.418"/>
					</g>
					<g>
						<rect x="1561.527" y="1141.832" style="fill:#9C5525;" width="8.191" height="211.418"/>
						<rect x="1561.063" y="1141.832" style="fill:#B8A7A2;" width="2.977" height="211.418"/>
					</g>
					<g>
						<rect x="1545.117" y="1141.832" style="fill:#9C5525;" width="8.195" height="211.418"/>
						<rect x="1544.66" y="1141.832" style="fill:#B8A7A2;" width="2.969" height="211.418"/>
					</g>
					<g>
						<rect x="1528.719" y="1141.832" style="fill:#9C5525;" width="8.191" height="211.418"/>
						<rect x="1528.254" y="1141.832" style="fill:#B8A7A2;" width="2.973" height="211.418"/>
					</g>
				</g>
			</g>
		</g>
		<g>
			<g>
				<path style="fill:#19110E;" d="M1525.289,1405.586c-0.785,17.383-15.527,30.828-32.902,30.039
					c-17.395-0.789-30.84-15.527-30.047-32.898c0.793-17.391,15.527-30.836,32.91-30.039
					C1512.625,1373.469,1526.082,1388.203,1525.289,1405.586z"/>
				<path d="M1515.523,1405.141c-0.535,11.992-10.703,21.273-22.695,20.723c-11.992-0.547-21.266-10.703-20.723-22.699
					c0.547-11.996,10.703-21.277,22.703-20.73C1506.793,1382.984,1516.078,1393.152,1515.523,1405.141z"/>
			</g>
			<g>
				<path style="fill:#19110E;" d="M1595.086,1405.586c-0.785,17.383-15.52,30.828-32.898,30.039
					c-17.383-0.789-30.828-15.527-30.031-32.898c0.77-17.391,15.52-30.836,32.891-30.039
					C1582.434,1373.469,1595.883,1388.203,1595.086,1405.586z"/>
				<path d="M1585.336,1405.141c-0.551,11.992-10.719,21.273-22.703,20.723c-11.996-0.547-21.27-10.703-20.727-22.699
					c0.551-11.996,10.703-21.277,22.703-20.73C1576.602,1382.984,1585.887,1393.152,1585.336,1405.141z"/>
			</g>
			<g>
				<path style="fill:#19110E;" d="M1455.484,1405.586c-0.785,17.383-15.516,30.828-32.902,30.039
					c-17.383-0.789-30.832-15.527-30.039-32.898c0.785-17.391,15.512-30.836,32.906-30.039
					C1442.816,1373.469,1456.266,1388.203,1455.484,1405.586z"/>
				<path d="M1445.727,1405.141c-0.547,11.992-10.711,21.273-22.699,20.723c-12-0.547-21.277-10.703-20.734-22.699
					c0.551-11.996,10.707-21.277,22.707-20.73C1436.984,1382.984,1446.273,1393.152,1445.727,1405.141z"/>
			</g>
			<g>
				<path style="fill:#19110E;" d="M1664.902,1405.586c-0.789,17.383-15.523,30.828-32.906,30.039s-30.832-15.527-30.043-32.898
					c0.797-17.391,15.523-30.836,32.906-30.039C1652.234,1373.469,1665.688,1388.203,1664.902,1405.586z"/>
				<path d="M1655.129,1405.141c-0.535,11.992-10.699,21.273-22.691,20.723c-11.992-0.547-21.266-10.703-20.719-22.699
					c0.539-11.996,10.703-21.277,22.699-20.73C1646.406,1382.984,1655.684,1393.152,1655.129,1405.141z"/>
			</g>
			<g>
				<path style="fill:#19110E;" d="M1865.516,1405.586c-0.785,17.383-15.516,30.828-32.898,30.039s-30.832-15.527-30.035-32.898
					c0.777-17.391,15.516-30.836,32.895-30.039C1852.867,1373.469,1866.313,1388.203,1865.516,1405.586z"/>
				<path d="M1855.75,1405.141c-0.535,11.992-10.699,21.273-22.684,20.723c-12-0.547-21.277-10.703-20.734-22.699
					c0.547-11.996,10.711-21.277,22.703-20.73C1847.035,1382.984,1856.305,1393.152,1855.75,1405.141z"/>
			</g>
			<g>
				<path style="fill:#19110E;" d="M1935.32,1405.586c-0.777,17.383-15.516,30.828-32.895,30.039
					c-17.383-0.789-30.832-15.527-30.039-32.898c0.785-17.391,15.516-30.836,32.898-30.039
					C1922.668,1373.469,1936.121,1388.203,1935.32,1405.586z"/>
				<path d="M1925.563,1405.141c-0.543,11.992-10.703,21.273-22.691,20.723c-12.004-0.547-21.27-10.703-20.73-22.699
					c0.551-11.996,10.707-21.277,22.707-20.73C1916.828,1382.984,1926.113,1393.152,1925.563,1405.141z"/>
			</g>
			<g>
				<rect x="1374.098" y="1362.137" style="fill:#19110E;" width="569.098" height="37.844"/>
				<rect x="1363.914" y="1362.137" style="fill:#F47E48;" width="588.348" height="10.512"/>
				<polygon style="fill:#19110E;" points="1837.535,1298 1837.535,1362.137 1842.406,1362.137 1842.406,1302.867 1851.18,1302.867 
					1851.18,1362.137 1856.043,1362.137 1856.043,1302.867 1864.809,1302.867 1864.809,1362.137 1869.684,1362.137 
					1869.684,1302.867 1878.465,1302.867 1878.465,1362.137 1883.313,1362.137 1883.313,1302.867 1892.102,1302.867 
					1892.102,1362.137 1896.949,1362.137 1896.949,1302.867 1905.727,1302.867 1905.727,1362.137 1910.586,1362.137 
					1910.586,1302.867 1919.359,1302.867 1919.359,1362.137 1924.227,1362.137 1924.227,1302.867 1933.012,1302.867 
					1933.012,1362.137 1937.875,1362.137 1937.875,1302.867 1947.398,1302.867 1947.398,1362.137 1952.262,1362.137 1952.262,1298 
									"/>
			</g>
			<rect x="1666.43" y="1381.059" style="fill:#3E3531;" width="142.105" height="27.676"/>
			<rect x="1666.43" y="1408.734" style="fill:#19110E;" width="142.105" height="14.445"/>
		</g>
	</g>
	<g>
		<g>
			<rect x="1076.563" y="702.582" style="fill:#C58149;" width="42.5" height="659.555"/>
			<rect x="1076.563" y="702.582" style="fill:#D78D50;" width="7.063" height="659.555"/>
			<g>
				<rect x="1076.563" y="702.582" style="fill:#D78D50;" width="19.125" height="7.242"/>
				<rect x="1083.625" y="707.453" style="fill:#A86E3D;" width="12.063" height="2.371"/>
			</g>
			<g>
				<rect x="1076.563" y="789.074" style="fill:#D78D50;" width="19.125" height="7.238"/>
				<rect x="1083.625" y="793.941" style="fill:#A86E3D;" width="12.063" height="2.371"/>
			</g>
			<g>
				<rect x="1076.563" y="875.563" style="fill:#D78D50;" width="19.125" height="7.238"/>
				<rect x="1083.625" y="880.43" style="fill:#A86E3D;" width="12.063" height="2.371"/>
			</g>
			<g>
				<rect x="1076.563" y="962.063" style="fill:#D78D50;" width="19.125" height="7.238"/>
				<rect x="1083.625" y="966.918" style="fill:#A86E3D;" width="12.063" height="2.383"/>
			</g>
			<g>
				<rect x="1076.563" y="1048.551" style="fill:#D78D50;" width="19.125" height="7.238"/>
				<rect x="1083.625" y="1053.406" style="fill:#A86E3D;" width="12.063" height="2.383"/>
			</g>
			<g>
				<rect x="1076.563" y="1135.039" style="fill:#D78D50;" width="19.125" height="7.238"/>
				<rect x="1083.625" y="1139.902" style="fill:#A86E3D;" width="12.063" height="2.375"/>
			</g>
			<g>
				<rect x="1076.563" y="1221.527" style="fill:#D78D50;" width="19.125" height="7.242"/>
				<rect x="1083.625" y="1226.391" style="fill:#A86E3D;" width="12.063" height="2.379"/>
			</g>
			<g>
				<rect x="1076.563" y="1308.016" style="fill:#D78D50;" width="19.125" height="7.242"/>
				<rect x="1083.625" y="1312.879" style="fill:#A86E3D;" width="12.063" height="2.379"/>
			</g>
			<rect x="1095.688" y="702.582" style="opacity:0.4;fill:#FFFFFF;" width="11.309" height="659.555"/>
		</g>
		<g>
			<rect x="938.012" y="1212.484" style="fill:#C58149;" width="158.5" height="32.563"/>
			<polygon style="fill:#85562C;" points="938.012,1218.867 938.012,1221.984 1072.105,1221.984 1072.105,1233.859 
				1084.652,1233.859 1084.652,1218.867 			"/>
			<rect x="938.012" y="1212.484" style="opacity:0.4;fill:#FFFFFF;" width="158.5" height="6.563"/>
			<rect x="938.012" y="1233.629" style="opacity:0.4;fill:#FFFFFF;" width="158.5" height="6.559"/>
		</g>
		<g>
			<rect x="938.012" y="892.098" style="fill:#C58149;" width="158.5" height="32.566"/>
			<polygon style="fill:#85562C;" points="938.012,898.481 938.012,901.598 1072.105,901.598 1072.105,913.477 1084.652,913.477 
				1084.652,898.481 			"/>
			<rect x="938.012" y="892.098" style="opacity:0.4;fill:#FFFFFF;" width="158.5" height="6.558"/>
			<rect x="938.012" y="913.246" style="opacity:0.4;fill:#FFFFFF;" width="158.5" height="6.559"/>
		</g>
		<g>
			<rect x="938.012" y="745.082" style="fill:#C58149;" width="158.5" height="32.57"/>
			<polygon style="fill:#85562C;" points="938.012,751.469 938.012,754.582 1072.105,754.582 1072.105,766.465 1084.652,766.465 
				1084.652,751.469 			"/>
			<rect x="938.012" y="745.082" style="opacity:0.4;fill:#FFFFFF;" width="158.5" height="6.563"/>
			<rect x="938.012" y="766.234" style="opacity:0.4;fill:#FFFFFF;" width="158.5" height="6.563"/>
		</g>
		<g>
			<rect x="896.094" y="702.582" style="fill:#FDBB61;" width="42.5" height="659.555"/>
			<rect x="896.094" y="702.582" style="fill:#D78D50;" width="7.055" height="659.555"/>
			<g>
				<rect x="896.094" y="702.582" style="fill:#D78D50;" width="19.117" height="7.242"/>
				<rect x="903.148" y="707.453" style="fill:#A86E3D;" width="12.063" height="2.371"/>
			</g>
			<g>
				<rect x="896.094" y="789.074" style="fill:#D78D50;" width="19.117" height="7.238"/>
				<rect x="903.148" y="793.941" style="fill:#A86E3D;" width="12.063" height="2.371"/>
			</g>
			<g>
				<rect x="896.094" y="875.563" style="fill:#D78D50;" width="19.117" height="7.238"/>
				<rect x="903.148" y="880.43" style="fill:#A86E3D;" width="12.063" height="2.371"/>
			</g>
			<g>
				<rect x="896.094" y="962.063" style="fill:#D78D50;" width="19.117" height="7.238"/>
				<rect x="903.148" y="966.918" style="fill:#A86E3D;" width="12.063" height="2.383"/>
			</g>
			<g>
				<rect x="896.094" y="1048.551" style="fill:#D78D50;" width="19.117" height="7.238"/>
				<rect x="903.148" y="1053.406" style="fill:#A86E3D;" width="12.063" height="2.383"/>
			</g>
			<g>
				<rect x="896.094" y="1135.039" style="fill:#D78D50;" width="19.117" height="7.238"/>
				<rect x="903.148" y="1139.902" style="fill:#A86E3D;" width="12.063" height="2.375"/>
			</g>
			<g>
				<rect x="896.094" y="1221.527" style="fill:#D78D50;" width="19.117" height="7.242"/>
				<rect x="903.148" y="1226.391" style="fill:#A86E3D;" width="12.063" height="2.379"/>
			</g>
			<g>
				<rect x="896.094" y="1308.016" style="fill:#D78D50;" width="19.117" height="7.242"/>
				<rect x="903.148" y="1312.879" style="fill:#A86E3D;" width="12.063" height="2.379"/>
			</g>
			<rect x="915.211" y="702.582" style="opacity:0.4;fill:#FFFFFF;" width="11.313" height="659.555"/>
		</g>
		<path style="fill:#A86E3D;" d="M938.594,748.269c0,23.965-23.383,17.637-23.383,17.637v-58.453h23.383V748.269z"/>
		<path style="fill:#82532A;" d="M1119.063,748.269c0,23.965-23.375,17.637-23.375,17.637v-58.453h23.375V748.269z"/>
		<g>
			<rect x="1109.621" y="702.582" style="fill:#C58149;" width="292.832" height="42.5"/>
			<rect x="1109.621" y="702.582" style="opacity:0.4;fill:#FFFFFF;" width="20.676" height="19.121"/>
			<rect x="1109.621" y="702.582" style="fill:#925F33;" width="292.832" height="7.059"/>
			<rect x="1109.621" y="721.703" style="opacity:0.4;fill:#FFFFFF;" width="292.832" height="11.313"/>
		</g>
		<g>
			<rect x="914.144" y="702.582" style="fill:#FDBB61;" width="292.832" height="42.5"/>
			<rect x="914.144" y="702.582" style="opacity:0.4;fill:#FFFFFF;" width="20.688" height="19.121"/>
			<rect x="914.144" y="702.582" style="fill:#D78D50;" width="292.832" height="7.059"/>
			<rect x="914.144" y="721.703" style="opacity:0.4;fill:#FFFFFF;" width="292.832" height="11.313"/>
		</g>
		<path style="fill:#A86E3D;" d="M938.594,896.445c0,23.965-23.383,17.637-23.383,17.637v-58.457h23.383V896.445z"/>
		<path style="fill:#A86E3D;" d="M1119.063,896.445c0,23.965-23.375,17.637-23.375,17.637v-58.457h23.375V896.445z"/>
		<g>
			<rect x="1109.621" y="850.762" style="fill:#C58149;" width="292.832" height="42.504"/>
			<rect x="1109.621" y="850.762" style="opacity:0.4;fill:#FFFFFF;" width="20.676" height="19.125"/>
			<rect x="1109.621" y="850.762" style="fill:#925F33;" width="292.832" height="7.055"/>
			<rect x="1109.621" y="869.887" style="opacity:0.4;fill:#FFFFFF;" width="292.832" height="11.309"/>
		</g>
		<g>
			<rect x="914.144" y="850.762" style="fill:#FDBB61;" width="292.832" height="42.504"/>
			<rect x="914.144" y="850.762" style="opacity:0.4;fill:#FFFFFF;" width="20.688" height="19.125"/>
			<rect x="914.144" y="850.762" style="fill:#D78D50;" width="292.832" height="7.055"/>
			<rect x="914.144" y="869.887" style="opacity:0.4;fill:#FFFFFF;" width="292.832" height="11.309"/>
		</g>
		<g>
			<rect x="1380.008" y="702.582" style="fill:#FDBB61;" width="42.5" height="671.129"/>
			<rect x="1380.008" y="702.582" style="fill:#D78D50;" width="7.055" height="671.129"/>
			<g>
				<rect x="1380.008" y="702.582" style="fill:#D78D50;" width="19.121" height="7.242"/>
				<rect x="1387.063" y="707.453" style="fill:#A86E3D;" width="12.066" height="2.371"/>
			</g>
			<g>
				<rect x="1380.008" y="789.074" style="fill:#D78D50;" width="19.121" height="7.238"/>
				<rect x="1387.063" y="793.941" style="fill:#A86E3D;" width="12.066" height="2.371"/>
			</g>
			<g>
				<rect x="1380.008" y="875.563" style="fill:#D78D50;" width="19.121" height="7.238"/>
				<rect x="1387.063" y="880.43" style="fill:#A86E3D;" width="12.066" height="2.371"/>
			</g>
			<g>
				<rect x="1380.008" y="962.063" style="fill:#D78D50;" width="19.121" height="7.238"/>
				<rect x="1387.063" y="966.918" style="fill:#A86E3D;" width="12.066" height="2.383"/>
			</g>
			<g>
				<rect x="1380.008" y="1048.551" style="fill:#D78D50;" width="19.121" height="7.238"/>
				<rect x="1387.063" y="1053.406" style="fill:#A86E3D;" width="12.066" height="2.383"/>
			</g>
			<g>
				<rect x="1380.008" y="1135.039" style="fill:#D78D50;" width="19.121" height="7.238"/>
				<rect x="1387.063" y="1139.902" style="fill:#A86E3D;" width="12.066" height="2.375"/>
			</g>
			<g>
				<rect x="1380.008" y="1221.527" style="fill:#D78D50;" width="19.121" height="7.242"/>
				<rect x="1387.063" y="1226.391" style="fill:#A86E3D;" width="12.066" height="2.379"/>
			</g>
			<g>
				<rect x="1380.008" y="1308.016" style="fill:#D78D50;" width="19.121" height="7.242"/>
				<rect x="1387.063" y="1312.879" style="fill:#A86E3D;" width="12.066" height="2.379"/>
			</g>
			<rect x="1399.129" y="702.582" style="opacity:0.4;fill:#FFFFFF;" width="11.313" height="671.129"/>
		</g>
		<g>
			<rect x="1240.953" y="745.082" style="fill:#FDBB61;" width="158.5" height="32.57"/>
			<polygon style="fill:#D78D50;" points="1240.953,751.469 1240.953,754.582 1375.043,754.582 1375.043,766.465 1387.586,766.465 
				1387.586,751.469 			"/>
			<rect x="1240.953" y="745.082" style="opacity:0.4;fill:#FFFFFF;" width="158.5" height="6.563"/>
			<rect x="1240.953" y="766.234" style="opacity:0.4;fill:#FFFFFF;" width="158.5" height="6.563"/>
		</g>
		<g>
			<rect x="1240.953" y="892.098" style="fill:#FDBB61;" width="158.5" height="32.566"/>
			<polygon style="fill:#D78D50;" points="1240.953,898.481 1240.953,901.598 1375.043,901.598 1375.043,913.477 1387.586,913.477 
				1387.586,898.481 			"/>
			<rect x="1240.953" y="892.098" style="opacity:0.4;fill:#FFFFFF;" width="158.5" height="6.558"/>
			<rect x="1240.953" y="913.246" style="opacity:0.4;fill:#FFFFFF;" width="158.5" height="6.559"/>
		</g>
		<g>
			<rect x="1240.953" y="1212.484" style="fill:#FDBB61;" width="158.5" height="32.563"/>
			<polygon style="fill:#D78D50;" points="1240.953,1218.867 1240.953,1221.984 1375.043,1221.984 1375.043,1233.859 
				1387.586,1233.859 1387.586,1218.867 			"/>
			<rect x="1240.953" y="1212.484" style="opacity:0.4;fill:#FFFFFF;" width="158.5" height="6.563"/>
			<rect x="1240.953" y="1233.629" style="opacity:0.4;fill:#FFFFFF;" width="158.5" height="6.559"/>
		</g>
		<g>
			<g>
				<g>
					<rect x="758.375" y="966.269" style="fill:#F26B30;" width="601.238" height="229.535"/>
					<rect x="758.375" y="966.269" style="fill:#F26B30;" width="187.398" height="229.535"/>
					<rect x="768.285" y="978.418" style="fill:#9C5525;" width="167.574" height="205.254"/>
					<rect x="779.461" y="985.648" style="fill:#F26B30;" width="145.23" height="190.785"/>
					<g>
						<g>
							<rect x="1341.703" y="975.168" style="fill:#9C5525;" width="8.219" height="211.738"/>
							<rect x="1341.246" y="975.168" style="fill:#B8A7A2;" width="2.977" height="211.738"/>
						</g>
						<g>
							<rect x="1325.285" y="975.168" style="fill:#9C5525;" width="8.203" height="211.738"/>
							<rect x="1324.805" y="975.168" style="fill:#B8A7A2;" width="2.988" height="211.738"/>
						</g>
						<g>
							<rect x="1308.855" y="975.168" style="fill:#9C5525;" width="8.203" height="211.738"/>
							<rect x="1308.391" y="975.168" style="fill:#B8A7A2;" width="2.973" height="211.738"/>
						</g>
						<g>
							<rect x="1292.426" y="975.168" style="fill:#9C5525;" width="8.207" height="211.738"/>
							<rect x="1291.965" y="975.168" style="fill:#B8A7A2;" width="2.98" height="211.738"/>
						</g>
						<g>
							<rect x="1275.992" y="975.168" style="fill:#9C5525;" width="8.211" height="211.738"/>
							<rect x="1275.535" y="975.168" style="fill:#B8A7A2;" width="2.98" height="211.738"/>
						</g>
						<g>
							<rect x="1259.57" y="975.168" style="fill:#9C5525;" width="8.215" height="211.738"/>
							<rect x="1259.105" y="975.168" style="fill:#B8A7A2;" width="2.984" height="211.738"/>
						</g>
						<g>
							<rect x="1243.141" y="975.168" style="fill:#9C5525;" width="8.215" height="211.738"/>
							<rect x="1242.688" y="975.168" style="fill:#B8A7A2;" width="2.973" height="211.738"/>
						</g>
						<g>
							<rect x="1226.711" y="975.168" style="fill:#9C5525;" width="8.215" height="211.738"/>
							<rect x="1226.25" y="975.168" style="fill:#B8A7A2;" width="2.98" height="211.738"/>
						</g>
						<g>
							<rect x="1210.289" y="975.168" style="fill:#9C5525;" width="8.207" height="211.738"/>
							<rect x="1209.832" y="975.168" style="fill:#B8A7A2;" width="2.98" height="211.738"/>
						</g>
						<g>
							<rect x="1193.863" y="975.168" style="fill:#9C5525;" width="8.207" height="211.738"/>
							<rect x="1193.402" y="975.168" style="fill:#B8A7A2;" width="2.977" height="211.738"/>
						</g>
						<g>
							<rect x="1177.438" y="975.168" style="fill:#9C5525;" width="8.207" height="211.738"/>
							<rect x="1176.973" y="975.168" style="fill:#B8A7A2;" width="2.977" height="211.738"/>
						</g>
						<g>
							<rect x="1161.008" y="975.168" style="fill:#9C5525;" width="8.199" height="211.738"/>
							<rect x="1160.539" y="975.168" style="fill:#B8A7A2;" width="2.988" height="211.738"/>
						</g>
						<g>
							<rect x="1144.582" y="975.168" style="fill:#9C5525;" width="8.207" height="211.738"/>
							<rect x="1144.109" y="975.168" style="fill:#B8A7A2;" width="2.992" height="211.738"/>
						</g>
						<g>
							<rect x="1128.148" y="975.168" style="fill:#9C5525;" width="8.211" height="211.738"/>
							<rect x="1127.691" y="975.168" style="fill:#B8A7A2;" width="2.98" height="211.738"/>
						</g>
						<g>
							<rect x="1111.715" y="975.168" style="fill:#9C5525;" width="8.215" height="211.738"/>
							<rect x="1111.258" y="975.168" style="fill:#B8A7A2;" width="2.988" height="211.738"/>
						</g>
						<g>
							<rect x="1095.293" y="975.168" style="fill:#9C5525;" width="8.211" height="211.738"/>
							<rect x="1094.824" y="975.168" style="fill:#B8A7A2;" width="2.988" height="211.738"/>
						</g>
						<g>
							<rect x="1078.867" y="975.168" style="fill:#9C5525;" width="8.203" height="211.738"/>
							<rect x="1078.406" y="975.168" style="fill:#B8A7A2;" width="2.977" height="211.738"/>
						</g>
						<g>
							<rect x="1062.441" y="975.168" style="fill:#9C5525;" width="8.203" height="211.738"/>
							<rect x="1061.977" y="975.168" style="fill:#B8A7A2;" width="2.988" height="211.738"/>
						</g>
						<g>
							<rect x="1046.008" y="975.168" style="fill:#9C5525;" width="8.207" height="211.738"/>
							<rect x="1045.555" y="975.168" style="fill:#B8A7A2;" width="2.977" height="211.738"/>
						</g>
						<g>
							<rect x="1029.582" y="975.168" style="fill:#9C5525;" width="8.215" height="211.738"/>
							<rect x="1029.121" y="975.168" style="fill:#B8A7A2;" width="2.977" height="211.738"/>
						</g>
						<g>
							<rect x="1013.152" y="975.168" style="fill:#9C5525;" width="8.211" height="211.738"/>
							<rect x="1012.691" y="975.168" style="fill:#B8A7A2;" width="2.988" height="211.738"/>
						</g>
						<g>
							<rect x="996.734" y="975.168" style="fill:#9C5525;" width="8.207" height="211.738"/>
							<rect x="996.269" y="975.168" style="fill:#B8A7A2;" width="2.981" height="211.738"/>
						</g>
						<g>
							<rect x="980.301" y="975.168" style="fill:#9C5525;" width="8.211" height="211.738"/>
							<rect x="979.84" y="975.168" style="fill:#B8A7A2;" width="2.98" height="211.738"/>
						</g>
						<g>
							<rect x="963.867" y="975.168" style="fill:#9C5525;" width="8.215" height="211.738"/>
							<rect x="963.41" y="975.168" style="fill:#B8A7A2;" width="2.98" height="211.738"/>
						</g>
					</g>
				</g>
			</g>
			<g>
				<g>
					<rect x="807.195" y="941.023" style="fill:#1C1C24;" width="240.883" height="10.371"/>
					<rect x="807.195" y="941.023" style="fill:#1C1C24;" width="23.219" height="25.246"/>
					<polygon style="fill:#1C1C24;" points="1036.461,1019.227 1059.688,983.273 1059.688,941.023 1036.461,941.023 					"/>
				</g>
				<g>
					<rect x="735.152" y="941.023" style="fill:#313139;" width="240.887" height="10.371"/>
					<polygon style="fill:#313139;" points="758.375,1019.227 735.152,983.273 735.152,941.023 758.375,941.023 					"/>
					<polygon style="fill:#313139;" points="964.422,1019.227 987.644,983.273 987.644,941.023 964.422,941.023 					"/>
				</g>
			</g>
			<g>
				<g>
					<rect x="1123.453" y="941.023" style="fill:#313139;" width="240.879" height="10.371"/>
					<polygon style="fill:#313139;" points="1341.117,1019.227 1364.332,983.273 1364.332,941.023 1341.117,941.023 					"/>
					<rect x="1111.844" y="941.023" style="fill:#313139;" width="23.219" height="25.246"/>
				</g>
			</g>
			<g>
				<polygon style="fill:#BB3F38;" points="1291.832,941.023 835.109,941.023 899.605,919.805 1215.93,919.805 				"/>
				<polygon style="fill:#99302A;" points="1263.148,941.023 869.535,941.023 901.789,930.41 1225.195,930.41 				"/>
				<polygon style="fill:#4D0400;" points="1234.473,933.004 1225.195,930.41 901.789,930.41 893.914,933.004 				"/>
			</g>
		</g>
		<g>
			<rect x="1198.465" y="702.582" style="fill:#FDBB61;" width="42.496" height="671.129"/>
			<rect x="1198.465" y="702.582" style="fill:#D78D50;" width="7.047" height="671.129"/>
			<g>
				<rect x="1198.465" y="702.582" style="fill:#D78D50;" width="19.117" height="7.242"/>
				<rect x="1205.512" y="707.453" style="fill:#A86E3D;" width="12.07" height="2.371"/>
			</g>
			<g>
				<rect x="1198.465" y="789.074" style="fill:#D78D50;" width="19.117" height="7.238"/>
				<rect x="1205.512" y="793.941" style="fill:#A86E3D;" width="12.07" height="2.371"/>
			</g>
			<g>
				<rect x="1198.465" y="875.563" style="fill:#D78D50;" width="19.117" height="7.238"/>
				<rect x="1205.512" y="880.43" style="fill:#A86E3D;" width="12.07" height="2.371"/>
			</g>
			<g>
				<rect x="1198.465" y="962.063" style="fill:#D78D50;" width="19.117" height="7.238"/>
				<rect x="1205.512" y="966.918" style="fill:#A86E3D;" width="12.07" height="2.383"/>
			</g>
			<g>
				<rect x="1198.465" y="1048.551" style="fill:#D78D50;" width="19.117" height="7.238"/>
				<rect x="1205.512" y="1053.406" style="fill:#A86E3D;" width="12.07" height="2.383"/>
			</g>
			<g>
				<rect x="1198.465" y="1135.039" style="fill:#D78D50;" width="19.117" height="7.238"/>
				<rect x="1205.512" y="1139.902" style="fill:#A86E3D;" width="12.07" height="2.375"/>
			</g>
			<g>
				<rect x="1198.465" y="1221.527" style="fill:#D78D50;" width="19.117" height="7.242"/>
				<rect x="1205.512" y="1226.391" style="fill:#A86E3D;" width="12.07" height="2.379"/>
			</g>
			<g>
				<rect x="1198.465" y="1308.016" style="fill:#D78D50;" width="19.117" height="7.242"/>
				<rect x="1205.512" y="1312.879" style="fill:#A86E3D;" width="12.07" height="2.379"/>
			</g>
			<rect x="1217.582" y="702.582" style="opacity:0.4;fill:#FFFFFF;" width="11.316" height="671.129"/>
		</g>
		<g>
			<rect x="987.644" y="893.266" style="fill:#1E1E26;" width="41.496" height="12.711"/>
			<rect x="979.863" y="869.887" style="fill:#313139;" width="15.559" height="36.09"/>
			<rect x="1000.836" y="905.977" style="fill:#313139;" width="14.844" height="13.828"/>
		</g>
		<g>
			<rect x="1113.449" y="893.266" style="fill:#1E1E26;" width="41.492" height="12.711"/>
			<rect x="1105.672" y="869.887" style="fill:#313139;" width="15.551" height="36.09"/>
			<rect x="1126.633" y="905.977" style="fill:#313139;" width="14.848" height="13.828"/>
		</g>
		<g>
			<path style="fill:#313139;" d="M1417.484,1405.754c0.004,8.98-0.781,24.426-7.043,29.902h-22.855
				c-16.508,0-29.902-13.391-29.902-29.902c0-16.516,13.395-29.898,29.902-29.898
				C1404.098,1375.855,1417.484,1389.238,1417.484,1405.754z"/>
			<path style="fill:#1C1C24;" d="M1440.336,1405.754c0,16.512-13.383,29.902-29.895,29.902c-16.516,0-29.898-13.391-29.898-29.902
				c0-16.516,13.383-29.898,29.898-29.898C1426.953,1375.855,1440.336,1389.238,1440.336,1405.754z"/>
			<path style="fill:#FDBB61;" d="M1443.148,1373.711h-83.535v18.539h33.477l0,0c0,13.824,11.211,25.027,25.027,25.027
				c13.824,0,25.031-11.203,25.031-25.027l0,0l0,0V1373.711z"/>
			<rect x="1396.344" y="1373.711" style="opacity:0.4;fill:#FFFFFF;" width="46.805" height="4.293"/>
		</g>
		<g>
			<path style="fill:#313139;" d="M1240.309,1405.754c0,8.98-0.777,24.426-7.047,29.902h-22.852
				c-16.516,0-29.898-13.391-29.898-29.902c0-16.516,13.383-29.898,29.898-29.898
				C1226.922,1375.855,1240.309,1389.238,1240.309,1405.754z"/>
			<path style="fill:#1C1C24;" d="M1263.164,1405.754c0,16.512-13.387,29.902-29.902,29.902c-16.512,0-29.898-13.391-29.898-29.902
				c0-16.516,13.387-29.898,29.898-29.898C1249.777,1375.855,1263.164,1389.238,1263.164,1405.754z"/>
			<path style="fill:#FDBB61;" d="M1265.965,1373.711h-83.527v18.539h33.484l0,0c0,13.824,11.203,25.027,25.02,25.027
				c13.824,0,25.023-11.203,25.023-25.027l0,0l0,0V1373.711z"/>
			<rect x="1219.164" y="1373.711" style="opacity:0.4;fill:#FFFFFF;" width="46.801" height="4.293"/>
		</g>
	</g>
</g>
</svg>
