<svg width="32" height="9" viewBox="0 0 32 9" fill="none" xmlns="http://www.w3.org/2000/svg">
<g clip-path="url(#clip0_409_4)">
<path d="M0.996094 7.0625H2.46094V1.64258H0.878906V0.705078H4.30664L9.43359 6.01953V1.64258H7.85156V0.705078H12.334V1.64258H10.752V8H9.49219L3.7793 1.95312V7.0625H5.36133V8H0.996094V7.0625ZM11.1738 8.41016V2.05273H12.7559V0.998047H12.9902V2.27539H11.4082V8.63281H9.84375V8.41016H11.1738ZM5.4375 0.998047L9.20508 4.79492V5.13477L5.12695 0.998047H5.4375ZM8.20312 2.05273H9.1875V2.27539H8.20312V2.05273ZM1.23047 2.05273L2.21484 2.27539H1.23047V2.05273ZM4.20117 2.75L4.43555 3.00781V6.71094H4.20117V2.75ZM5.7832 8.41016V7.39062H6.01758V8.63281H1.34766V8.41016H5.7832ZM14.5195 7.0625H16.1016V1.64258H14.5195V0.705078H23.2324V2.99023H21.9141V1.64258H17.4785V3.95117H20.4199V4.68359H17.4785V7.0625H21.9141V5.71484H23.2324V8H14.5195V7.0625ZM22.2656 3.40039H23.6543V0.998047H23.8887V3.62305H22.2656V3.40039ZM17.9004 2.05273H21.668V2.27539H18.1348V3.59961H17.9004V2.05273ZM14.8711 2.05273H15.8555V2.27539H14.8711V2.05273ZM17.9004 5.09375H20.8359V4.24414H21.0703V5.31641H18.1348V6.71094H17.9004V5.09375ZM23.6543 8.41016V6.04297H23.8887V8.63281H14.8711V8.41016H23.6543ZM25.8164 7.0625H27.457V1.64258H25.875V0.705078H30.416V1.64258H28.7871V7.0625H30.3574V8H25.8164V7.0625ZM29.209 2.05273H30.832V0.998047H31.0664V2.27539H29.4434V6.71094H29.209V2.05273ZM26.2266 2.05273H27.2109V2.27539H26.2266V2.05273ZM30.7793 8.41016V7.39062H31.0137V8.63281H26.168V8.41016H30.7793Z" fill="#F1B24B"/>
</g>
<defs>
<clipPath id="clip0_409_4">
<rect width="32" height="9" fill="white"/>
</clipPath>
</defs>
</svg>
